<svg width="298" height="280" viewBox="0 0 298 280" fill="none" xmlns="http://www.w3.org/2000/svg">
<g clip-path="url(#clip0_6468_17538)">
<path opacity="0.941" fill-rule="evenodd" clip-rule="evenodd" d="M142.541 5.84399C148.457 6.60015 153.369 9.22534 157.278 13.7206C162.521 13.5209 167.772 13.5209 173.031 13.7206C179.382 15.1445 182.008 19.1249 180.908 25.6625C184.077 26.2337 187.21 26.9959 190.309 27.9493C193.967 32.1462 195.831 37.0587 195.898 42.6861C195.503 46.3856 194.825 50.0276 193.866 53.6117C198.434 54.8221 202.584 56.8548 206.316 59.7097C207.101 62.0203 207.271 64.3914 206.824 66.824C206.101 69.4609 205.339 72.0866 204.537 74.7006C206.31 77.1505 208.427 79.268 210.889 81.0527C213.702 83.9996 214.379 87.387 212.922 91.216C211.356 94.1792 209.662 97.0589 207.84 99.8549C207.671 105.957 207.84 112.055 208.349 118.149C208.457 121.269 208.965 124.318 209.873 127.296C214.319 134.665 218.893 141.949 223.594 149.147C234.95 164.744 246.553 180.158 258.403 195.39C258.658 195.909 258.997 195.994 259.419 195.644C266.385 189.524 273.5 183.596 280.762 177.858C286.292 171.738 291.712 165.555 297.024 159.31C297.434 159.467 297.773 159.721 298.04 160.073C273.082 207.202 234.461 236.506 182.178 247.986C121.576 258.161 69.8283 241.476 26.9329 197.931C17.3439 187.052 8.87439 175.364 1.52457 162.868C1.0259 161.617 0.602448 160.347 0.25415 159.056C0.423522 158.633 0.592945 158.209 0.762317 157.786C6.90021 165.367 13.337 172.736 20.0727 179.891C21.6875 181.169 23.2967 182.439 24.9002 183.702C25.8881 183.225 26.735 182.547 27.4411 181.67C38.1126 168.288 48.7841 154.906 59.4556 141.525C62.8405 137.127 65.9739 132.554 68.8567 127.804C65.1181 123.304 61.4766 118.73 57.9311 114.084C57.1506 110.908 56.9808 107.689 57.4229 104.428C61.0289 93.1506 64.9245 81.971 69.1108 70.8894C70.8568 70.4899 72.6354 70.151 74.4465 69.873C75.0294 69.7114 75.4532 69.373 75.7169 68.8567C75.8862 64.4524 76.0559 60.0486 76.2251 55.6444C76.4081 54.5731 76.747 53.5568 77.2414 52.5953C82.3312 47.8481 86.6507 42.5123 90.1997 36.5881C91.958 35.0946 93.9058 34.6708 96.0436 35.3177C97.4965 34.9757 98.9361 34.5519 100.363 34.0473C103.412 30.4901 106.461 26.9329 109.51 23.3758C110.738 22.8356 112.008 22.4123 113.321 22.1053C115.077 22.6389 116.856 22.7238 118.657 22.3594C120.848 20.3364 122.881 18.1345 124.755 15.7532C127.587 14.5768 130.466 13.5605 133.394 12.7042C134.769 11.4994 135.955 10.1446 136.951 8.63891C138.591 7.14134 140.455 6.20937 142.541 5.84399ZM145.59 12.4502C150.212 12.5874 153.092 14.8741 154.229 19.3104C153.38 23.1034 151.177 24.1197 147.623 22.3594C144.798 20.9747 142.765 18.8576 141.525 16.0073C141.616 15.4717 141.785 14.9636 142.033 14.4828C143.184 13.656 144.37 12.9781 145.59 12.4502ZM165.917 16.0073C173.5 15.5459 176.804 19.1031 175.826 26.6788C173.006 35.2572 167.416 41.1855 159.056 44.4647C155.46 42.9 154.274 40.19 155.499 36.334C157.65 31.8632 160.191 27.6286 163.122 23.6298C163.421 21.7003 163.167 19.8369 162.359 18.04C163.51 17.2132 164.696 16.5353 165.917 16.0073ZM128.312 19.5645C135.319 19.9746 141.332 22.6852 146.352 27.6952C147.738 32.4079 145.96 34.1865 141.016 33.0309C136.065 31.1919 131.745 28.3969 128.058 24.6462C127.087 22.9016 127.171 21.2074 128.312 19.5645ZM120.69 25.1543C123.388 25.6305 125.929 26.5625 128.312 27.9493C135.185 33.2921 142.468 38.0348 150.163 42.1779C153.087 43.5764 155.12 45.7783 156.261 48.7841C154.143 52.6009 150.84 54.5487 146.352 54.628C136.527 53.787 129.074 49.2135 123.993 40.9075C121.378 37.892 119.853 38.4002 119.419 42.432C119.584 47.3917 118.398 51.9652 115.862 56.1525C112.6 58.5323 108.958 59.2945 104.937 58.4393C101.746 57.1826 98.6968 55.6581 95.7895 53.8658C92.2842 53.5543 91.3527 54.9944 92.9946 58.1852C100.233 65.3793 105.823 73.6792 109.764 83.0854C111.868 89.9964 110.429 96.0096 105.445 101.125C102.333 103.394 98.9447 103.902 95.2814 102.65C89.2967 99.8833 84.8075 95.5639 81.8149 89.6915C80.8454 83.1296 80.4221 76.5234 80.5445 69.873C78.7964 61.5177 80.9983 54.4878 87.1507 48.7841C94.6858 43.5764 102.308 38.4947 110.018 33.5391C112.39 31.8454 114.422 29.8127 116.116 27.4411C117.609 26.5259 119.133 25.7636 120.69 25.1543ZM181.67 30.7442C184.318 31.5593 186.859 32.6605 189.292 34.0473C191.655 36.3716 192.417 39.1665 191.579 42.432C190.988 45.1395 189.972 47.6804 188.53 50.0545C183.734 57.052 178.06 63.2348 171.506 68.6026C169.761 69.84 167.898 70.8563 165.917 71.6516C160.073 72.5831 157.617 70.1271 158.548 64.2832C159.226 62.9279 159.903 61.5731 160.581 60.2179C165.493 54.1199 170.405 48.0218 175.318 41.9238C177.833 38.417 179.95 34.6906 181.67 30.7442ZM133.902 56.6607C135.268 56.5773 136.623 56.6622 137.967 56.9148C138.668 60.1498 140.362 62.6906 143.049 64.5373C145.944 65.0175 148.824 65.5257 151.688 66.0618C159.738 73.7315 167.191 81.8622 174.047 90.4538C177.45 91.8817 181.007 92.5596 184.719 92.4865C186.251 95.7225 188.284 98.6022 190.817 101.125C194.068 103.115 197.54 104.047 201.234 103.92C203.137 113.772 205.169 123.596 207.332 133.394C222.636 155.93 237.965 178.204 253.321 200.218C237.971 210.772 221.37 218.903 203.521 224.61C201.86 225.226 200.167 225.395 198.439 225.118C185.033 208.325 172.414 190.963 160.581 173.031C156.582 168.185 152.093 163.865 147.114 160.073C145.799 159.464 144.443 158.956 143.049 158.548C126.021 156.994 109.929 152.251 94.7732 144.319C81.7286 134.664 70.803 123.061 61.9964 109.51C61.6575 107.477 61.6575 105.445 61.9964 103.412C64.7858 94.3646 68.1737 85.5566 72.1598 76.9874C74.2346 75.9344 75.3358 76.5275 75.4629 78.7659C74.509 84.7867 73.7468 90.7998 73.1761 96.8059C77.4183 97.9106 81.1452 99.9433 84.3558 102.904C86.8966 107.308 89.4375 111.712 91.9783 116.116C96.3882 121.98 101.555 122.912 107.477 118.911C114.734 111.771 119.562 103.216 121.96 93.2487C122.223 91.1901 122.054 89.1575 121.452 87.1507C119.235 82.0253 117.118 76.8588 115.1 71.6516C115.378 69.656 116.141 67.8775 117.387 66.3159C120.372 63.4991 123.505 60.8734 126.788 58.4393C129.168 57.5993 131.539 57.0067 133.902 56.6607ZM198.439 59.2015C203.398 59.2351 205.008 61.6067 203.267 66.3159C198.735 72.5424 193.23 77.709 186.751 81.8149C184.993 82.8643 183.13 83.6266 181.162 84.1017C175.146 82.564 174.045 79.3458 177.859 74.4465C183.821 68.0477 190.681 62.966 198.439 59.2015ZM201.996 81.0527C205.22 80.6741 207.337 82.0294 208.349 85.118C208.993 92.6043 205.521 96.0767 197.931 95.5355C195.123 94.0521 194.192 91.7654 195.136 88.6752C196.286 85.0708 198.573 82.5299 201.996 81.0527ZM72.922 137.967C73.9856 138.244 75.002 138.668 75.971 139.238C79.4083 143.398 82.9654 147.464 86.6425 151.434C88.1071 152.251 89.6316 152.928 91.216 153.466C98.8223 153.714 105.767 155.916 112.051 160.073C116.904 164.145 118.682 169.311 117.387 175.572C116.867 177.989 116.189 180.36 115.354 182.686C108.969 195.97 101.686 208.674 93.5028 220.799C92.8163 221.571 92.054 222.248 91.216 222.831C79.8458 217.884 68.4969 212.886 57.1689 207.84C51.4098 204.114 45.6502 200.387 39.8912 196.661C37.4774 194.947 35.2754 192.999 33.285 190.817C42.96 179.76 52.0221 168.241 60.4719 156.261C62.8837 151.606 65.4245 147.033 68.0944 142.541C69.3171 140.555 70.9259 139.03 72.922 137.967ZM140 171.506C145.666 171.248 150.324 173.281 153.975 177.604C166.487 194.074 178.937 210.59 191.325 227.151C187.231 228.614 182.996 229.631 178.621 230.2C151.596 234.619 125.003 232.924 98.8385 225.118C107.541 211.014 116.434 197.04 125.517 183.194C127.957 180.246 130.582 177.451 133.394 174.809C135.501 173.417 137.703 172.316 140 171.506Z" fill="#5B2E8F"/>
</g>
<defs>
<clipPath id="clip0_6468_17538">
<rect width="297.786" height="280" fill="white"/>
</clipPath>
</defs>
</svg>
